<?xml version="1.0" encoding="utf-8"?>
<!-- Generator: Adobe Illustrator 19.0.0, SVG Export Plug-In . SVG Version: 6.00 Build 0)  -->
<svg version="1.1" xmlns="http://www.w3.org/2000/svg" xmlns:xlink="http://www.w3.org/1999/xlink" x="0px" y="0px"
	 viewBox="0 0 120 60" style="enable-background:new 0 0 120 60;" xml:space="preserve">
<style type="text/css">
	.st0{fill:#1ABC8A;}
	.st1{fill:#00C0FF;}
	.st2{fill:#FDBE01;}
	.st3{fill:#FD6262;}
	.st4{display:none;}
	.st5{fill:#808080;}
	.st6{fill:#4D4D4D;}
</style>
<g id="图层_1">
	<path id="XMLID_5_" class="st0" d="M41.4,46c-1,0-1.8-0.8-1.8-1.8s0.8-1.8,1.8-1.8c3.6,0,7.4-2.6,7.4-6.6s-2.4-6.6-6-6.6
		c-1,0-1.8-0.8-1.8-1.8c0-1,0.8-1.8,1.8-1.8c2.8,0,5.3,1.1,7,3c1.7,1.8,2.6,4.4,2.6,7.1c0,2.8-1.2,5.4-3.4,7.3
		C46.8,45,44.1,46,41.4,46L41.4,46z"/>
	<path id="XMLID_4_" class="st1" d="M42.1,46H17.5c-1,0-1.8-0.8-1.8-1.8s0.8-1.8,1.8-1.8h24.5c1,0,1.8,0.8,1.8,1.8S43.1,46,42.1,46z
		"/>
	<path id="XMLID_3_" class="st2" d="M18.8,46c-3.2,0-6.3-1.1-8.6-3.1C7.8,40.9,6.3,38,6,34.8c-0.2-3.2,0.9-6.3,3-8.6
		c2.2-2.4,5.3-3.7,8.6-3.7c1,0,1.8,0.8,1.8,1.8S18.7,26,17.7,26c-2.4,0-4.5,0.9-6.1,2.5c-1.5,1.6-2.3,3.8-2.1,6
		c0.3,4.6,4.2,7.9,9.3,7.9c1,0,1.8,0.8,1.8,1.8S19.8,46,18.8,46z"/>
	<path id="XMLID_2_" class="st3" d="M42.7,29.3c-1,0-1.8-0.8-1.8-1.8c0-7.5-5.7-12-11.1-12c-6.5,0-9.7,5.4-10.4,9.1
		c-0.2,1-1.1,1.6-2,1.4c-1-0.2-1.6-1.1-1.4-2c0.5-3,2.1-5.9,4.3-8c2.6-2.6,5.9-3.9,9.6-3.9c3.6,0,7.2,1.5,9.9,4
		c1.5,1.4,2.6,3,3.4,4.9c0.9,2,1.3,4.2,1.3,6.6C44.4,28.5,43.7,29.3,42.7,29.3L42.7,29.3z"/>
	<path id="XMLID_1_" class="st0" d="M48.8,32.2c-0.6,0-1.2-0.3-1.5-0.8c-1.1-1.8-3.4-2-4.6-2c-1,0-1.8-0.8-1.8-1.8
		c0-1,0.8-1.8,1.8-1.8c1.6,0,3.1,0.3,4.3,0.9c1.4,0.6,2.5,1.6,3.3,2.8c0.5,0.8,0.3,1.9-0.6,2.4C49.5,32.1,49.1,32.2,48.8,32.2
		L48.8,32.2z"/>
	<path id="XMLID_9_" class="st4" d="M50,19.9h21v1.3H57.9l-3.1,10.3C54.8,31.8,55,32,55.2,32h10.9c0.3,0,0.5-0.3,0.4-0.6l-1.9-6.6
		h3.5l2,7.1c0.2,0.7-0.2,1.4-0.9,1.4H52.2c-0.8,0-1.2-0.7-1-1.4l3.2-10.8H50V19.9z M50.9,13.1h19.2v1.3H50.9
		C50.9,14.4,50.9,13.1,50.9,13.1z"/>
	<path id="XMLID_15_" class="st4" d="M84,13.9v2.6h-1.8v2.3h1.5v2.6h-1.5v7.6c0,0.7-0.2,1.3-0.7,1.8c-0.4,0.4-0.9,0.6-1.6,0.6h-2.7
		v-2.4H79c0.3,0,0.5-0.4,0.5-1.2v-1.7l-0.2,0.5c-0.3,0.6-0.6,0.9-1,0.9h-1.7V25H77c0.4,0,0.7-0.3,0.9-0.8l1.6-4v-3.8H77v-2.6h2.5
		v-1.5h2.8v1.5C82.2,13.9,84,13.9,84,13.9z M95.2,14.3v2.5h-3.9v2.1h3.9v2.7l-3.8,5.3l1.4,1.5c0.3,0.3,0.5,0.5,0.9,0.5h1.8v2.4H92
		c-0.5,0-0.9-0.2-1.3-0.7l-1-1.3l-0.8,1.1c-0.4,0.6-1,0.9-1.9,0.9h-3.2v-2.4h1.9c0.5,0,0.9-0.2,1.2-0.5l1-1.3l-3.4-4.2h3.4l1.6,1.9
		l2.5-3.4h-7.3v-2.5h3.7v-2.1h-3.6v-2.5h3.6v-2.1h2.8v2.1L95.2,14.3L95.2,14.3z M101.4,19.1h3l-1.3,8.7c-0.3,2-1.2,3-2.6,3h-2.8
		v-2.8h1.8c0.3,0,0.6-0.5,0.8-1.5L101.4,19.1L101.4,19.1z M113.2,13h3.3v2.7c0,1.1-0.6,1.6-1.9,1.6h-5.8v14.3h-3.2V17.2h-7.2v-2.7
		h7.2v-2.5h3.2v2.5h4c0.3,0,0.4-0.2,0.4-0.5L113.2,13L113.2,13z M110.1,19.1h3l1.6,7.6c0.2,1,0.5,1.4,1,1.4h1.5v2.8h-2.7
		c-1.3,0-2.2-0.9-2.6-2.8L110.1,19.1L110.1,19.1z"/>
</g>
<g id="图层_2">
</g>
<g id="图层_3">
	<g id="XMLID_19_">
		<path id="XMLID_17_" class="st5" d="M59.7,45.8h-0.3v-4.9h0.3v0.5c0-0.1,0.1-0.2,0.2-0.3c0.1-0.2,0.3-0.3,0.7-0.3h2.3v0.2h-2.3
			c-0.3,0-0.5,0.1-0.6,0.2c0,0-0.1,0.1-0.1,0.2c0,0-0.1,0.1-0.1,0.1v1.6h2.7v0.2h-2.7V45.8z"/>
		<path id="XMLID_20_" class="st5" d="M64.9,45.8h-0.3c-1,0.1-1.5-0.5-1.4-1.6v-0.6c-0.1-0.9,0.4-1.4,1.4-1.3h0.3
			c1,0,1.4,0.4,1.4,1.3v0.6C66.4,45.3,66,45.9,64.9,45.8z M66,44.3v-0.5c0-0.9-0.3-1.4-1.1-1.3h-0.3c-0.8-0.1-1.2,0.4-1.1,1.3v0.5
			c-0.1,1,0.3,1.4,1.1,1.4h0.3C65.7,45.7,66.1,45.2,66,44.3z"/>
		<path id="XMLID_23_" class="st5" d="M68.5,45.8H68c-0.8,0-1.1-0.3-1.1-1v-2.5h0.3v2.6c0,0.6,0.2,0.8,0.8,0.8h0.5
			c0.3,0,0.5-0.1,0.7-0.3c0,0,0.1-0.1,0.1-0.2c0,0,0.1-0.1,0.1-0.2v-2.7h0.3v3.6h-0.3V45c-0.1,0.2-0.1,0.4-0.2,0.5
			C69,45.7,68.8,45.8,68.5,45.8z"/>
		<path id="XMLID_25_" class="st5" d="M70.6,45.8h-0.3v-3.6h0.3v0.9c0-0.1,0.1-0.3,0.1-0.4c0.1-0.3,0.4-0.5,0.8-0.5
			c0.3,0,0.6,0.1,0.8,0.3l-0.3,0.2c-0.1-0.2-0.3-0.4-0.6-0.4c-0.3,0-0.5,0.2-0.7,0.5c-0.1,0.2-0.2,0.3-0.2,0.4V45.8z"/>
		<path id="XMLID_27_" class="st5" d="M76.8,45.8h-0.6c-1.2,0-1.8-0.5-1.8-1.6v-1.7c0-1,0.6-1.5,1.8-1.5h0.6c1,0,1.6,0.5,1.6,1.5
			h-0.3c0-0.9-0.4-1.4-1.3-1.4h-0.6c-1,0-1.4,0.5-1.4,1.5v1.5c0,1,0.4,1.5,1.4,1.4h0.5c1,0.1,1.5-0.4,1.4-1.4h0.4
			C78.6,45.3,78,45.8,76.8,45.8z"/>
		<path id="XMLID_29_" class="st5" d="M80.8,45.8h-0.3c-1,0.1-1.5-0.5-1.4-1.6v-0.6c-0.1-0.9,0.4-1.4,1.4-1.3h0.3
			c1,0,1.4,0.4,1.4,1.3v0.6C82.3,45.3,81.8,45.9,80.8,45.8z M81.9,44.3v-0.5c0-0.9-0.3-1.4-1.1-1.3h-0.3c-0.8-0.1-1.2,0.4-1.1,1.3
			v0.5c-0.1,1,0.3,1.4,1.1,1.4h0.3C81.6,45.7,82,45.2,81.9,44.3z"/>
		<path id="XMLID_32_" class="st5" d="M83.2,45.8h-0.3v-4.8h0.3V45.8z"/>
		<path id="XMLID_34_" class="st5" d="M85.6,45.8h-0.3c-1,0.1-1.5-0.5-1.4-1.6v-0.6c-0.1-0.9,0.4-1.4,1.4-1.3h0.3
			c1,0,1.4,0.4,1.4,1.3v0.6C87.1,45.3,86.6,45.9,85.6,45.8z M86.7,44.3v-0.5c0-0.9-0.3-1.4-1.1-1.3h-0.3c-0.8-0.1-1.2,0.4-1.1,1.3
			v0.5c-0.1,1,0.3,1.4,1.1,1.4h0.3C86.4,45.7,86.7,45.2,86.7,44.3z"/>
		<path id="XMLID_37_" class="st5" d="M87.8,45.8h-0.3v-3.6h0.3v0.9c0-0.1,0.1-0.3,0.1-0.4c0.1-0.3,0.4-0.5,0.8-0.5
			c0.3,0,0.6,0.1,0.8,0.3l-0.3,0.2c-0.1-0.2-0.3-0.4-0.6-0.4c-0.3,0-0.5,0.2-0.7,0.5c-0.1,0.2-0.2,0.3-0.2,0.4V45.8z"/>
		<path id="XMLID_39_" class="st5" d="M94,45.8h-0.6c-1.2,0-1.8-0.5-1.8-1.6v-1.7c0-1,0.6-1.5,1.8-1.5h0.6c1,0,1.6,0.5,1.6,1.5h-0.3
			c0-0.9-0.4-1.4-1.3-1.4h-0.6c-1,0-1.4,0.5-1.4,1.5v1.5c0,1,0.4,1.5,1.4,1.4H94c1,0.1,1.5-0.4,1.4-1.4h0.4
			C95.8,45.3,95.3,45.8,94,45.8z"/>
		<path id="XMLID_41_" class="st5" d="M96.8,45.8h-0.3v-4.8h0.3V45.8z"/>
		<path id="XMLID_43_" class="st5" d="M99.1,45.8h-0.3c-1,0.1-1.5-0.5-1.4-1.6v-0.6c-0.1-0.9,0.4-1.4,1.4-1.3h0.3
			c1,0,1.4,0.4,1.4,1.3v0.6C100.6,45.3,100.2,45.9,99.1,45.8z M100.2,44.3v-0.5c0-0.9-0.3-1.4-1.1-1.3h-0.3
			c-0.8-0.1-1.2,0.4-1.1,1.3v0.5c-0.1,1,0.3,1.4,1.1,1.4h0.3C99.9,45.7,100.3,45.2,100.2,44.3z"/>
		<path id="XMLID_46_" class="st5" d="M102.7,45.8h-0.5c-0.8,0-1.1-0.3-1.1-1v-2.5h0.3v2.6c0,0.6,0.2,0.8,0.8,0.8h0.5
			c0.3,0,0.5-0.1,0.7-0.3c0,0,0.1-0.1,0.1-0.2c0,0,0.1-0.1,0.1-0.2v-2.7h0.3v3.6h-0.3V45c-0.1,0.2-0.1,0.4-0.2,0.5
			C103.2,45.7,103,45.8,102.7,45.8z"/>
		<path id="XMLID_48_" class="st5" d="M107.5,45.8h-0.3v-0.7c-0.1,0.4-0.4,0.7-0.8,0.7h-0.7c-0.8,0-1.2-0.3-1.2-1v-1.5
			c0-0.7,0.4-1,1.2-1.1h0.7c0.4,0,0.6,0.2,0.8,0.6v-1.9h0.3V45.8z M106.4,42.4h-0.7c-0.6,0-0.9,0.3-0.9,0.8v1.6
			c0,0.5,0.3,0.8,0.9,0.8h0.7c0.3,0,0.6-0.2,0.7-0.6v-2.2C107,42.6,106.8,42.4,106.4,42.4z"/>
	</g>
</g>
<g id="图层_4">
</g>
<g id="图层_5">
	<g id="XMLID_16_">
		<path id="XMLID_51_" class="st6" d="M57.9,23.9c0-0.6,0.5-1.1,1.1-1.1h12.1c0.6,0,1.1,0.5,1.1,1.1v12.6c0,0.6-0.5,1.1-1.1,1.1H59
			c-0.6,0-1.1-0.5-1.1-1.1V23.9z M69.7,24.3c0-0.3-0.4-0.6-0.7-0.6H68v9.5c0,0.3,0.3,0.6,0.6,0.6h0.6v0.9h-2.6
			c-0.6,0-1.1-0.5-1.1-1.1v-9.9h-1.2c0,4.2-0.3,7.8-1.1,11H61c0.7-3.6,1.1-6.2,1.1-11H61c-0.3,0-0.6,0.3-0.6,0.6v11.7
			c0,0.3,0.3,0.6,0.6,0.6h8.1c0.3,0,0.6-0.3,0.6-0.6V24.3z"/>
		<path id="XMLID_54_" class="st6" d="M75.2,37.7c0.5-2,0.9-4.4,1.1-6.8h-1.1V30h3.3v-1.2H81V30h3.4v0.9h-1.1
			c0.2,2.4,0.6,4.8,1.1,6.8h-2.3c-0.5-1.9-0.9-4.4-1.1-6.8h0v6.8h-2.5v-6.8h0c-0.2,2.4-0.5,4.9-1.1,6.8H75.2z M75.2,23.1h4.6
			c1,0,1.5-0.2,1.8-0.8h2.7c-0.2,1.1-1,1.7-2.4,1.7h-6.7V23.1z M75.8,28.2l-0.2-3.7h2.2l0.3,3.7H75.8z M78.8,28.2l-0.3-3.7h2.2
			l0.3,3.7H78.8z M81.5,28.2l0.3-3.7H84l-0.3,3.7H81.5z M90.3,22.3c-0.8,1.9-1.8,3.3-3,4.6h-2.7c1.5-1.5,2.6-3,3.4-4.6H90.3z
			 M90.4,27.5c-0.8,1.8-1.8,3.3-3,4.6h-2.7c1.5-1.5,2.6-3,3.4-4.6H90.4z M90.5,33.1c-0.8,1.9-1.8,3.3-3.1,4.6h-2.7
			c1.5-1.5,2.6-3,3.4-4.6H90.5z"/>
		<path id="XMLID_63_" class="st6" d="M93,27.8h15.3v0.9h-9.5l-2.3,7.5c0,0.2,0.1,0.4,0.3,0.4h7.9c0.2,0,0.4-0.2,0.3-0.4l-1.4-4.8
			h2.6l1.4,5.2c0.1,0.5-0.2,1-0.7,1H94.6c-0.5,0-0.9-0.5-0.7-1l2.4-7.9H93V27.8z M93.6,22.9h14v0.9h-14V22.9z"/>
	</g>
	<g id="XMLID_14_">
	</g>
	<g id="XMLID_66_">
	</g>
	<g id="XMLID_67_">
	</g>
	<g id="XMLID_68_">
	</g>
	<g id="XMLID_69_">
	</g>
	<g id="XMLID_70_">
	</g>
	<g id="XMLID_71_">
	</g>
	<g id="XMLID_72_">
	</g>
	<g id="XMLID_73_">
	</g>
	<g id="XMLID_74_">
	</g>
	<g id="XMLID_75_">
	</g>
	<g id="XMLID_76_">
	</g>
	<g id="XMLID_77_">
	</g>
	<g id="XMLID_78_">
	</g>
	<g id="XMLID_79_">
	</g>
</g>
</svg>
